<?xml version="1.0" standalone="no"?>
<!DOCTYPE svg PUBLIC "-//W3C//DTD SVG 20010904//EN"
 "http://www.w3.org/TR/2001/REC-SVG-20010904/DTD/svg10.dtd">
<svg version="1.0" xmlns="http://www.w3.org/2000/svg"
 width="1080.000000pt" height="1080.000000pt" viewBox="0 0 1080.000000 1080.000000"
 preserveAspectRatio="xMidYMid meet">

<g transform="translate(0.000000,1080.000000) scale(0.100000,-0.100000)"
fill="#000000" stroke="none">
<path d="M3384 7832 c-88 -31 -154 -99 -180 -188 -12 -43 -14 -221 -12 -1280
3 -1229 3 -1229 24 -1275 27 -58 85 -116 143 -143 45 -20 61 -21 536 -24 324
-2 502 0 526 7 74 22 128 94 129 171 0 53 -38 120 -88 155 l-44 30 -426 5
-427 5 0 1090 0 1090 1840 0 1840 0 0 -1090 0 -1090 -516 -5 -515 -5 -36 -24
c-59 -41 -83 -85 -83 -156 0 -71 24 -115 83 -156 l36 -24 595 0 c586 0 597 0
642 21 58 27 116 85 143 143 l21 46 0 1250 0 1250 -21 46 c-27 57 -85 115
-144 143 l-45 21 -1985 2 c-1879 2 -1988 1 -2036 -15z"/>
<path d="M5652 7185 c-68 -12 -127 -26 -132 -31 -4 -5 -94 -261 -200 -569
-106 -308 -237 -690 -291 -849 -55 -159 -98 -291 -95 -293 2 -2 73 32 157 75
l154 80 274 797 c150 438 269 800 265 804 -5 4 -64 -2 -132 -14z"/>
<path d="M4993 7074 c-40 -36 -73 -74 -73 -84 0 -18 250 -440 261 -440 5 0 99
239 99 253 0 9 -151 266 -182 310 -11 15 -22 27 -26 27 -4 0 -40 -30 -79 -66z"/>
<path d="M4580 6699 l-255 -231 2 -73 c1 -40 6 -90 12 -111 l10 -39 285 -142
c156 -78 287 -139 290 -136 3 4 6 62 6 130 l0 123 -160 80 c-88 44 -160 86
-160 94 0 7 62 67 138 134 75 66 152 136 171 155 l33 35 -57 106 c-31 58 -57
106 -58 106 -1 0 -117 -104 -257 -231z"/>
<path d="M5937 6803 c-3 -5 -21 -60 -41 -123 l-36 -115 23 -21 c12 -12 72 -66
132 -119 61 -54 110 -104 110 -113 0 -10 -86 -56 -260 -139 -143 -68 -267
-127 -275 -132 -14 -8 -134 -310 -126 -318 10 -11 902 422 923 448 14 18 37
182 28 206 -3 10 -92 95 -196 188 -260 232 -277 246 -282 238z"/>
<path d="M4770 5085 l0 -115 115 0 115 0 0 115 0 115 -115 0 -115 0 0 -115z"/>
<path d="M5230 5085 l0 -115 115 0 115 0 0 115 0 115 -115 0 -115 0 0 -115z"/>
<path d="M5690 5085 l0 -115 115 0 115 0 0 115 0 115 -115 0 -115 0 0 -115z"/>
<path d="M4521 4577 l-824 -282 826 -3 c455 -1 1199 -1 1654 0 l826 3 -819
279 c-450 154 -823 281 -829 282 -5 2 -381 -124 -834 -279z m1192 2 c197 -67
356 -123 354 -126 -5 -4 -1428 -5 -1433 0 -3 3 691 244 711 246 6 1 171 -53
368 -120z"/>
</g>
</svg>
