<?xml version="1.0" standalone="no"?>
<!DOCTYPE svg PUBLIC "-//W3C//DTD SVG 20010904//EN"
 "http://www.w3.org/TR/2001/REC-SVG-20010904/DTD/svg10.dtd">
<svg version="1.0" xmlns="http://www.w3.org/2000/svg"
 width="100%" height="100%" viewBox="0 0 1080.000000 1080.000000"
 preserveAspectRatio="xMidYMid meet">

<g transform="translate(0.000000,1080.000000) scale(0.100000,-0.100000)"
fill="#FFF" stroke="none">
<path d="M3920 6070 c0 -82 -3 -150 -6 -150 -4 0 -24 16 -45 34 -51 47 -108
62 -179 47 -139 -28 -221 -189 -175 -347 23 -81 98 -155 174 -174 87 -21 158
-1 219 61 l32 33 0 -27 c0 -43 32 -67 90 -67 l50 0 0 54 c0 39 -4 55 -15 60
-13 5 -15 49 -15 316 l0 310 -65 0 -65 0 0 -150z m-97 -184 c18 -7 47 -30 65
-50 29 -33 32 -43 32 -101 0 -58 -3 -68 -31 -100 -67 -76 -184 -63 -229 25
-54 106 6 229 118 239 7 0 27 -5 45 -13z"/>
<path d="M535 6175 l-25 -24 0 -391 0 -391 25 -25 c24 -24 25 -24 192 -22
l167 3 15 27 c15 25 14 29 -8 52 -24 25 -28 26 -153 26 l-128 0 0 330 0 330
555 -2 556 -3 0 -325 0 -325 -143 -2 c-172 -3 -181 -5 -197 -39 -10 -22 -9
-31 4 -50 15 -24 16 -24 208 -24 l194 0 24 26 24 26 0 388 0 388 -24 26 -24
26 -619 0 -619 0 -24 -25z"/>
<path d="M1246 6001 c-16 -3 -33 -13 -37 -21 -15 -26 -176 -500 -170 -500 3 0
25 10 48 22 l42 22 80 236 c45 129 81 238 81 243 0 8 -1 8 -44 -2z"/>
<path d="M2409 5996 c-223 -60 -255 -387 -48 -491 108 -55 242 -40 325 37 24
22 44 47 44 54 0 17 -109 50 -125 38 -54 -40 -71 -47 -110 -47 -81 0 -135 60
-135 151 0 56 10 83 43 120 43 47 133 48 183 1 22 -20 23 -20 83 -3 34 9 61
21 61 27 0 6 -20 30 -45 53 -70 67 -169 89 -276 60z"/>
<path d="M3035 6001 c-173 -45 -253 -227 -171 -389 26 -51 61 -84 126 -118 46
-24 179 -24 231 -1 53 24 96 63 127 116 24 40 27 56 27 131 0 68 -5 93 -22
126 -26 48 -83 101 -131 121 -41 17 -146 25 -187 14z m145 -130 c116 -83 64
-284 -74 -284 -82 0 -136 59 -136 151 0 56 15 95 48 125 43 39 113 42 162 8z"/>
<path d="M4405 6001 c-44 -11 -107 -46 -131 -73 -75 -81 -92 -217 -41 -315 56
-108 179 -161 310 -133 63 13 129 53 158 96 l19 29 -53 17 -52 16 -32 -30
c-42 -40 -119 -50 -170 -22 -31 16 -73 76 -73 104 0 6 70 10 205 10 l205 0 0
53 c0 168 -171 290 -345 248z m159 -121 c33 -30 60 -82 49 -94 -4 -3 -66 -6
-140 -6 -147 0 -149 1 -118 61 23 43 71 69 127 69 38 0 54 -6 82 -30z"/>
<path d="M5635 6001 c-173 -45 -253 -227 -171 -389 26 -51 61 -84 126 -118 46
-24 179 -24 231 -1 53 24 96 63 127 116 24 40 27 56 27 131 0 68 -5 93 -22
126 -26 48 -83 101 -131 121 -41 17 -146 25 -187 14z m145 -130 c116 -83 64
-284 -74 -284 -82 0 -136 59 -136 151 0 56 15 95 48 125 43 39 113 42 162 8z"/>
<path d="M7031 5995 c-18 -8 -51 -34 -72 -58 l-39 -42 0 53 0 52 -60 0 -60 0
0 -260 0 -260 65 0 65 0 0 155 c0 128 3 160 17 181 20 31 77 61 132 70 l41 7
0 58 c0 58 -1 59 -27 59 -16 -1 -43 -7 -62 -15z"/>
<path d="M7415 6001 c-94 -23 -165 -90 -192 -180 -36 -125 15 -254 125 -314
108 -59 244 -43 327 37 25 23 45 48 45 54 0 16 -110 47 -125 36 -56 -42 -73
-49 -111 -48 -81 2 -134 62 -134 152 0 56 10 83 43 120 43 47 133 48 183 1 22
-20 23 -20 83 -3 34 9 61 21 61 27 0 6 -20 30 -45 53 -65 63 -165 88 -260 65z"/>
<path d="M8000 6003 c-37 -7 -140 -54 -140 -65 0 -7 27 -67 35 -76 1 -1 26 9
56 23 38 17 71 25 112 25 51 0 62 -4 88 -29 21 -22 29 -39 29 -65 0 -35 -1
-35 -32 -28 -18 4 -64 7 -103 7 -129 0 -215 -66 -215 -165 0 -95 71 -155 180
-155 70 1 114 18 162 62 l26 25 7 -24 c14 -45 35 -58 92 -58 l53 0 0 50 c0 37
-5 55 -20 70 -18 18 -20 33 -20 140 0 133 -13 178 -66 219 -51 40 -157 59
-244 44z m149 -289 c28 -6 31 -10 31 -44 0 -58 -56 -100 -135 -100 -35 0 -51
6 -70 25 -14 13 -25 32 -25 42 0 25 28 63 54 73 25 10 102 12 145 4z"/>
<path d="M8721 5995 c-18 -8 -51 -34 -72 -58 l-39 -42 0 53 0 52 -60 0 -60 0
0 -260 0 -260 65 0 65 0 0 155 c0 128 3 160 17 181 20 31 77 61 132 70 l41 7
0 58 c0 58 -1 59 -27 59 -16 -1 -43 -7 -62 -15z"/>
<path d="M9095 6001 c-44 -11 -107 -46 -131 -73 -75 -81 -92 -217 -41 -315 56
-108 179 -161 310 -133 63 13 129 53 158 96 l19 29 -53 17 -52 16 -32 -30
c-42 -40 -119 -50 -170 -22 -31 16 -73 76 -73 104 0 6 70 10 205 10 l205 0 0
53 c0 168 -171 290 -345 248z m159 -121 c33 -30 60 -82 49 -94 -4 -3 -66 -6
-140 -6 -147 0 -149 1 -118 61 23 43 71 69 127 69 38 0 54 -6 82 -30z"/>
<path d="M9755 6001 c-44 -11 -107 -46 -131 -73 -75 -81 -92 -217 -41 -315 56
-108 179 -161 310 -133 63 13 129 53 158 96 l19 29 -53 17 -52 16 -32 -30
c-42 -40 -119 -50 -170 -22 -31 16 -73 76 -73 104 0 6 70 10 205 10 l205 0 0
53 c0 168 -171 290 -345 248z m159 -121 c33 -30 60 -82 49 -94 -4 -3 -66 -6
-140 -6 -147 0 -149 1 -118 61 23 43 71 69 127 69 38 0 54 -6 82 -30z"/>
<path d="M10471 5995 c-18 -8 -51 -34 -72 -58 l-39 -42 0 53 0 52 -60 0 -60 0
0 -260 0 -260 65 0 65 0 0 155 c0 128 3 160 17 181 20 31 77 61 132 70 l41 7
0 58 c0 58 -1 59 -27 59 -16 -1 -43 -7 -62 -15z"/>
<path d="M4823 5988 c3 -7 42 -105 87 -218 45 -113 90 -226 100 -251 19 -46
18 -46 -5 -98 -25 -52 -29 -55 -92 -51 l-33 2 0 -55 c0 -62 6 -67 73 -67 55 1
119 30 146 69 16 23 251 657 251 678 0 2 -28 3 -63 3 l-62 0 -59 -186 c-33
-102 -62 -187 -66 -189 -3 -2 -37 81 -75 186 l-69 189 -69 0 c-51 0 -68 -3
-64 -12z"/>
<path d="M6120 5806 c0 -201 6 -242 44 -285 63 -71 201 -65 294 15 l42 36 0
-26 c0 -42 32 -66 90 -66 l50 0 0 54 c0 35 -5 58 -15 66 -12 10 -15 46 -15
206 l0 194 -65 0 -65 0 0 -164 0 -165 -33 -34 c-40 -43 -100 -63 -140 -48 -47
18 -57 60 -57 246 l0 165 -65 0 -65 0 0 -194z"/>
<path d="M1051 5966 l-23 -24 40 -68 41 -67 15 38 c16 37 15 39 -15 91 -17 30
-32 54 -33 54 -1 0 -13 -11 -25 -24z"/>
<path d="M923 5852 c-62 -57 -73 -72 -73 -100 0 -30 5 -34 90 -77 l90 -45 0
40 c0 38 -3 42 -45 62 -25 12 -45 25 -45 30 0 4 22 28 50 54 49 46 49 46 34
75 -8 16 -18 29 -22 29 -4 -1 -40 -31 -79 -68z"/>
<path d="M1325 5849 c-6 -27 -2 -36 30 -69 21 -21 35 -43 31 -48 -3 -5 -39
-24 -80 -42 -70 -31 -76 -36 -95 -81 -11 -27 -17 -49 -13 -49 4 1 68 31 142
68 135 67 135 67 135 102 0 30 -9 43 -62 93 -35 31 -67 57 -72 57 -5 0 -12
-14 -16 -31z"/>
<path d="M985 5368 c2 -29 6 -33 34 -36 30 -3 31 -2 31 32 0 34 -2 36 -34 36
-32 0 -34 -2 -31 -32z"/>
<path d="M1122 5368 c3 -29 7 -33 36 -36 31 -3 32 -2 32 32 0 35 -1 36 -36 36
-34 0 -35 -1 -32 -32z"/>
<path d="M1262 5368 c3 -29 7 -33 36 -36 31 -3 32 -2 32 32 0 35 -1 36 -36 36
-34 0 -35 -1 -32 -32z"/>
<path d="M2425 5355 c-16 -15 -25 -36 -25 -55 0 -38 39 -80 73 -80 42 0 77 36
77 80 0 71 -76 104 -125 55z"/>
<path d="M915 5215 l-240 -84 485 0 485 0 -245 84 c-135 47 -245 84 -245 84 0
-1 -108 -39 -240 -84z m348 2 c53 -18 100 -36 103 -40 4 -4 -89 -7 -206 -7
-117 0 -211 3 -207 6 7 8 187 72 203 73 6 1 54 -14 107 -32z"/>
</g>
</svg>
